<?xml version="1.0" encoding="UTF-8"?>
<svg id="Layer_1" data-name="Layer 1" xmlns="http://www.w3.org/2000/svg" xmlns:xlink="http://www.w3.org/1999/xlink" viewBox="0 0 256 256">
  <defs>
    <style>
      .cls-1, .cls-2 {
        fill: none;
      }

      .cls-3 {
        clip-path: url(#clippath);
      }

      .cls-4 {
        fill: #a8a2c6;
      }

      .cls-4, .cls-5 {
        stroke-width: 2px;
      }

      .cls-4, .cls-5, .cls-6, .cls-2 {
        stroke: #fff;
        stroke-miterlimit: 10;
      }

      .cls-5, .cls-6 {
        fill: #5d5999;
      }

      .cls-7 {
        clip-path: url(#clippath-1);
      }

      .cls-8 {
        clip-path: url(#clippath-3);
      }

      .cls-9 {
        clip-path: url(#clippath-2);
      }
    </style>
    <clipPath id="clippath">
      <rect class="cls-1" x="45.75" y="23" width="168.76" height="78.41"/>
    </clipPath>
    <clipPath id="clippath-1">
      <rect class="cls-1" x="63.18" y="64.33" width="142.59" height="67.93"/>
    </clipPath>
    <clipPath id="clippath-2">
      <rect class="cls-1" x="65.92" y="127.49" width="118.21" height="56.76"/>
    </clipPath>
    <clipPath id="clippath-3">
      <rect class="cls-1" x="70.24" y="69.84" width="129.27" height="60.06"/>
    </clipPath>
  </defs>
  <g class="cls-3">
    <g>
      <path class="cls-5" d="m86.16,109.03h89.18c12.64,0,22.9,10.26,22.9,22.9v46.19H63.26v-46.19c0-12.64,10.26-22.9,22.9-22.9Z"/>
      <path class="cls-5" d="m78.47,165.01h0c-8.6-5.29-11.17-16.37-5.74-24.74l35.69-55.05c5.43-8.38,16.81-10.88,25.41-5.59h0c8.6,5.29,11.17,16.37,5.74,24.74l-35.69,55.05c-5.43,8.38-16.81,10.88-25.41,5.59Z"/>
      <path class="cls-5" d="m184.13,164.96h0c8.6-5.29,11.17-16.37,5.74-24.74l-35.69-55.05c-5.43-8.38-16.81-10.88-25.41-5.59h0c-8.6,5.29-11.17,16.37-5.74,24.74l35.69,55.05c5.43,8.38,16.81,10.88,25.41,5.59Z"/>
    </g>
  </g>
  <line class="cls-2" x1="98.19" y1="101.64" x2="169.67" y2="101.1"/>
  <g class="cls-7">
    <g>
      <path class="cls-5" d="m100.88,138.86h68.25c12.64,0,22.9,10.26,22.9,22.9v36.96h-114.05v-36.96c0-12.64,10.26-22.9,22.9-22.9Z"/>
      <ellipse class="cls-5" cx="133.74" cy="96.84" rx="31.7" ry="31.66"/>
      <path class="cls-5" d="m90.83,187.36h0c-7.27-4.58-9.44-14.18-4.85-21.44l30.15-47.7c4.59-7.26,14.2-9.43,21.47-4.85h0c7.27,4.58,9.44,14.18,4.85,21.44l-30.15,47.7c-4.59,7.26-14.2,9.43-21.47,4.85Z"/>
      <path class="cls-5" d="m180.1,187.31h0c7.27-4.58,9.44-14.18,4.85-21.44l-30.15-47.7c-4.59-7.26-14.2-9.43-21.47-4.85h0c-7.27,4.58-9.44,14.18-4.85,21.44l30.15,47.7c4.59,7.26,14.2,9.43,21.47,4.85Z"/>
    </g>
  </g>
  <rect class="cls-6" x="114.13" y="101.14" width="41.39" height="7.07" transform="translate(303.92 127.91) rotate(150)"/>
  <rect class="cls-6" x="112.92" y="101.27" width="41.39" height="7.07" transform="translate(70.3 -52.76) rotate(30)"/>
  <g class="cls-9">
    <path class="cls-4" d="m110.65,133.06h48.75c12.64,0,22.9,10.26,22.9,22.9v27.57h-94.55v-27.57c0-12.64,10.26-22.9,22.9-22.9Z"/>
    <ellipse class="cls-4" cx="133.97" cy="97.63" rx="26.28" ry="26.69"/>
    <path class="cls-4" d="m98.4,173.95h0c-6.03-3.86-7.83-11.96-4.02-18.07l25-40.22c3.8-6.12,11.77-7.95,17.8-4.09h0c6.03,3.86,7.83,11.96,4.02,18.07l-25,40.22c-3.8,6.12-11.77,7.95-17.8,4.09Z"/>
    <path class="cls-4" d="m172.41,173.91h0c6.03-3.86,7.83-11.96,4.02-18.07l-25-40.22c-3.8-6.12-11.77-7.95-17.8-4.09h0c-6.03,3.86-7.83,11.96-4.02,18.07l25,40.22c3.8,6.12,11.77,7.95,17.8,4.09Z"/>
  </g>
  <g class="cls-8">
    <g>
      <path class="cls-5" d="m106.56,135.74h57.59c12.64,0,22.9,10.26,22.9,22.9v30.02h-103.39v-30.02c0-12.64,10.26-22.9,22.9-22.9Z"/>
      <path class="cls-5" d="m95.31,178.62h0c-6.59-4.05-8.56-12.54-4.4-18.95l27.33-42.17c4.16-6.42,12.87-8.33,19.46-4.28h0c6.59,4.05,8.56,12.54,4.4,18.95l-27.33,42.17c-4.16,6.42-12.87,8.33-19.46,4.28Z"/>
      <path class="cls-5" d="m176.23,178.58h0c6.59-4.05,8.56-12.54,4.4-18.95l-27.33-42.17c-4.16-6.42-12.87-8.33-19.46-4.28h0c-6.59,4.05-8.56,12.54-4.4,18.95l27.33,42.17c4.16,6.42,12.87,8.33,19.46,4.28Z"/>
    </g>
  </g>
  <line class="cls-2" x1="110.41" y1="130.08" x2="165.16" y2="129.67"/>
</svg>