<?xml version="1.0" encoding="UTF-8"?>
<svg id="Layer_1" data-name="Layer 1" xmlns="http://www.w3.org/2000/svg" xmlns:xlink="http://www.w3.org/1999/xlink" viewBox="0 0 300 256">
  <defs>
    <style>
      .cls-1, .cls-2, .cls-3 {
        fill: none;
      }

      .cls-4 {
        clip-path: url(#clippath);
      }

      .cls-5, .cls-6 {
        fill: #153f6b;
      }

      .cls-7 {
        fill: #b5dbea;
      }

      .cls-7, .cls-8, .cls-9, .cls-10, .cls-11, .cls-6, .cls-12, .cls-13, .cls-14, .cls-2 {
        stroke-width: 2px;
      }

      .cls-7, .cls-8, .cls-9, .cls-10, .cls-11, .cls-6, .cls-12, .cls-13, .cls-14, .cls-2, .cls-3 {
        stroke: #fff;
        stroke-miterlimit: 10;
      }

      .cls-8 {
        fill: #e6f5f8;
      }

      .cls-9 {
        fill: #1065a1;
      }

      .cls-10 {
        fill: #235085;
      }

      .cls-11 {
        fill: #87c6e3;
      }

      .cls-12 {
        fill: #0b88c0;
      }

      .cls-13 {
        fill: #55a5cf;
      }

      .cls-14 {
        fill: #ceebf4;
      }
    </style>
    <clipPath id="clippath">
      <rect class="cls-1" x="4.92" y="50.98" width="290.63" height="154.01"/>
    </clipPath>
  </defs>
  <path class="cls-2" d="m295.55,51.67h-38.73c2.12,20.41,18.33,36.62,38.73,38.74v-38.74Z"/>
  <g>
    <g class="cls-4">
      <g>
        <rect class="cls-8" x="229.09" y="50.78" width="66.52" height="158.91"/>
        <rect class="cls-14" x="218.63" y="50.78" width="10.46" height="158.91"/>
        <rect class="cls-7" x="211.37" y="50.78" width="7.26" height="158.91"/>
        <rect class="cls-11" x="196.26" y="50.78" width="15.11" height="158.91"/>
        <rect class="cls-13" x="174.77" y="50.78" width="21.5" height="158.91"/>
        <rect class="cls-12" x="141.07" y="50.78" width="33.7" height="158.91"/>
        <rect class="cls-9" x="93.72" y="50.78" width="47.35" height="158.91"/>
        <rect class="cls-10" x="45.5" y="50.78" width="48.22" height="158.91"/>
        <rect class="cls-6" x="5.12" y="50.78" width="40.38" height="158.91"/>
      </g>
    </g>
    <ellipse class="cls-3" cx="50.09" cy="128.2" rx="12.23" ry="12.23"/>
    <ellipse class="cls-3" cx="251.16" cy="129.28" rx="13.07" ry="13.07"/>
    <polyline class="cls-3" points="256.82 205.69 295.55 205.69 295.55 166.94"/>
    <polyline class="cls-3" points="4.92 166.94 4.92 205.69 43.65 205.69"/>
    <polyline class="cls-3" points="43.65 51.67 4.92 51.67 4.92 90.42"/>
    <polyline class="cls-3" points="295.55 90.42 295.55 51.67 256.82 51.67"/>
    <path class="cls-3" d="m285.91,51.67s0-.04,0-.05H32.28s0,.04,0,.05l13.2-.03c-.22,2.15.8,3.92.27,5.96l212.22.37"/>
    <path class="cls-3" d="m257.97,199.34l-212.34-.76c.53,2.06-.21,4.94.02,7.1h211.17"/>
  </g>
  <circle class="cls-3" cx="149.63" cy="128.75" r="59.47"/>
  <path class="cls-3" d="m11.75,168.26v-79.07c10.94,0,18.9-2.86,26.22-10.18,9.12-9.12,7.62-19.55,7.77-21.41"/>
  <line class="cls-3" x1="287.77" y1="88.7" x2="287.77" y2="168.23"/>
  <path class="cls-3" d="m11.45,167.68c10.94,0,18.9,2.86,26.22,10.18,9.12,9.12,7.62,19.55,7.77,21.41"/>
  <path class="cls-3" d="m257.32,199.36c0-9.57,1.57-14.08,9.68-22.48,8.96-9.28,19.26-9.14,21.12-9.14"/>
  <path class="cls-3" d="m288.2,89.25c-9.57,0-13.62-1.9-22.02-10.01-9.28-8.96-8.76-19.85-8.76-21.71"/>
  <path class="cls-5" d="m142.67,173.16v-11.15c-2.47-.61-4.87-1.09-7.19-1.81-5.4-1.67-9.81-4.68-12.39-9.9-1.1-2.23-1.76-4.59-.91-7.11.88-2.62,2.63-4.34,5.31-4.96,2.75-.63,5.09.26,6.93,2.35,1.85,2.1,1.55,5.44-.6,7.25-1.63,1.37-3.51,1.79-5.6,1.41-.43-.08-1.18-.04-1.29.19-.2.42-.22,1.11,0,1.52.41.76.98,1.46,1.58,2.08,3.22,3.37,7.27,5.11,11.78,5.91.76.14,1.53.25,2.39.39,0-.34,0-.61,0-.88,0-10.47,0-20.94.02-31.41,0-.74-.21-1.01-.91-1.24-4.59-1.52-8.93-3.52-12.53-6.86-5.49-5.09-6.23-12.49-3.39-18.42,1.43-3,3.83-5.11,6.65-6.77,2.96-1.75,6.16-2.91,9.51-3.63.55-.12.67-.34.67-.84-.02-1.63,0-3.27,0-4.95h2.89v4.98h9.4v-4.96h2.71c0,1.45.05,2.9-.02,4.35-.04.86.27,1.13,1.11,1.25,3.27.46,6.46,1.22,9.44,2.7,3.28,1.63,5.95,3.92,7.54,7.31.81,1.74.97,3.57.59,5.42-.53,2.57-3.5,4.56-6.52,4.46-3.54-.12-6.07-3.11-5.55-6.62.28-1.85,1.49-2.98,3.1-3.76.76-.37,1.55-.69,2.25-1.15.81-.53.8-.8.12-1.47-2.21-2.18-4.97-3.28-7.91-3.97-1.31-.31-2.66-.49-4.1-.75-.04.36-.1.61-.1.87.01,8.44.04,16.87.05,25.31,0,1.7-.01,1.7,1.6,2.33,4.07,1.59,7.98,3.46,11.31,6.36,3.08,2.68,5.45,5.84,6.24,9.96.15.76.12,1.56.19,2.46.18-.33.33-.6.47-.86v3.82c-.12.26-.31.51-.35.78-.8,5.44-3.68,9.6-7.96,12.84-3.15,2.39-6.76,3.82-10.57,4.77-.76.19-.99.52-.97,1.31.06,3.21.03,6.43.04,9.65,0,.48.04.96.07,1.44h-2.72v-11.35c-3.18.19-6.23.38-9.43.58v10.77h-2.9Zm2.95-45.65c-.02.41-.04.68-.04.94,0,9.98.01,19.96-.02,29.94,0,.85.26,1.16,1.07,1.12,2.56-.13,5.12-.26,7.68-.37.52-.02.66-.28.62-.77-.05-.66-.05-1.33-.05-2,.02-8.22.04-16.44.09-24.66,0-.69-.27-.98-.86-1.17-.81-.25-1.6-.53-2.4-.82-2.01-.72-4.01-1.45-6.1-2.21Zm12.06,30.87c1.14-.4,2.15-.64,3.06-1.1,1.8-.9,3.69-1.71,5.29-2.9,5.78-4.29,5.46-11.3,2.81-15.21-1.58-2.33-3.76-3.92-6.2-5.17-1.56-.8-3.2-1.46-4.95-2.25v26.62Zm-2.72-39.6c0-.68,0-1.19,0-1.7-.02-8.1-.05-16.21-.05-24.31,0-.55-.17-.7-.65-.7-2.5,0-5,.02-7.5-.03-.97-.02-1.18.36-1.17,1.28.03,7.28,0,14.57-.02,21.85,0,.57.14.87.72,1.04,2.42.73,4.83,1.52,7.25,2.27.42.13.87.18,1.42.29Zm-12.26-26.04c-3.68,1.03-7.08,2.29-9.55,5.24-1.85,2.2-2.5,4.79-1.86,7.57.27,1.17.89,2.35,1.64,3.28,2.53,3.12,6.09,4.6,9.77,5.93v-22.02Z"/>
</svg>