<svg id="uuid-3d93bcb0-5bbc-4855-b339-e4849a81bc94" xmlns="http://www.w3.org/2000/svg" viewBox="0 0 256 256"><defs><style>.uuid-f8395411-288c-4557-9764-1d31ffc519ce{fill:#b4dded;}.uuid-5584a786-0828-4310-9c78-b330d838092e{fill:#1b5085;}</style></defs><path class="uuid-f8395411-288c-4557-9764-1d31ffc519ce" d="m171.71,187.92s.61,10.93-38.9,11.4v-.15c-37.83-.74-37.24-11.35-37.24-11.35l.68-15.21-3.13-4.42h0c1.01-2.09.67-22.86.17-40.58-.02-.76-.04-1.5-.06-2.24,3.62.54,19.4,2.76,39.29,3h0c.74.02,1.47.02,2.21.02h0c12.29.07,26-.64,39.3-2.95-.03.75-.05,1.51-.07,2.28-.49,17.72-.84,38.49.17,40.57l-3.13,4.44.68,15.2Z"/><path class="uuid-5584a786-0828-4310-9c78-b330d838092e" d="m174.85,102.13s-.1,2.47-.25,6.48c0,.11,0,.23,0,.34-.14,3.66-.3,8.52-.46,13.89-.03.85-.05,1.72-.08,2.59-13.3,2.31-27.01,3.02-39.3,2.95h0c-.74,0-1.48,0-2.21-.02h0c-19.9-.25-35.68-2.46-39.29-3-.02-.51-.03-1.02-.04-1.52-.18-5.92-.36-11.29-.5-15.22-.14-4.07-.25-6.6-.25-6.6,0,0,2.59.68,7.08,1.55,7.11,1.37,19,3.2,32.91,3.5h.1v1.55h2.21v-1.52h.1c10.8.09,22.67-.78,34.41-3.52,1.87-.43,3.73-.9,5.58-1.44Z"/><path class="uuid-5584a786-0828-4310-9c78-b330d838092e" d="m135.1,47.21l-.09,21.61-.03,7.23-.02,3.94-.11,27.11v.52l-.09,20.77h0c-.74,0-1.48,0-2.21-.02h0c-19.9-.25-35.68-2.46-39.29-3,.02.74.04,1.49.06,2.24-.56-.1-.84-.15-.84-.15-4.9,8.71-.85,54.73-.85,54.73l-1.62,1.22s1.37,4.24,0,9.8-12.02,3.6-12.02,3.6l-1.64-9.94s-7.61-27.73-4.97-67.94c.27-4.12.63-7.88,1.06-11.3,3.77-30.03,12.85-34.66,12.85-34.66,0,0,6.55-3.39,13.31-6.77,7.24-3.63,11.6-3.15,14.13-6.7,1.53-2.14,2.79-5.88.95-12.85,4.49.54,9.45.87,14.83.82,2.28-.02,4.48-.12,6.58-.26h0s.02,0,.03,0Z"/><path class="uuid-5584a786-0828-4310-9c78-b330d838092e" d="m194.36,185.45l-3.38,1.49-1.63,9.94s-10.66,1.95-12.03-3.6c-1.36-5.55,0-9.8,0-9.8l-1.61-1.21s4.05-46.03-.85-54.74c-.29.06-.57.12-.85.18.02-.77.04-1.52.07-2.28-13.3,2.31-27.01,3.02-39.3,2.95h0c-.74,0-1.48,0-2.21-.02h0l-.09-20.75v-.55l-.11-26.87-.02-4.11-.03-7.22-.08-21.57s1.12-.14,2.86-.09h0c5.48,0,11.01-.51,16.58-1.56-.9,7.74,1.07,11.73,2.95,13.93,2.92,3.41,6.9,3.07,14.1,6.68,6.77,3.39,13.34,6.79,13.34,6.79,0,0,9.06,4.63,12.84,34.58.43,3.45.8,7.24,1.07,11.39,2.64,40.21-3.19,62.56-1.6,66.44Z"/></svg>